<svg xmlns="http://www.w3.org/2000/svg" version="1.1" xmlns:xlink="http://www.w3.org/1999/xlink" xmlns:svgjs="http://svgjs.dev/svgjs" width="1920" height="800" preserveAspectRatio="none" viewBox="0 0 1920 800"><g mask="url(&quot;#SvgjsMask1043&quot;)" fill="none"><rect width="1920" height="800" x="0" y="0" fill="rgba(221, 221, 221, 1)"></rect><path d="M600 194.12C596.89 194.12 594.15 195.72 593.55 200C579.64 298.66 568.25 305.71 570.97 400C571.48 417.55 585.58 423.68 600 423.68C614.16 423.68 627.71 417.28 628.13 400C630.45 305.44 619 298.99 605.48 200C604.94 196.05 602.86 194.12 600 194.12" stroke="rgba(67, 77, 187, 1)" stroke-width="2"></path><path d="M1175 0C1187.99 0.49 1187.01 7.55 1200 7.55C1299.51 7.55 1300.28 -3.74 1400 0C1500.28 3.76 1510.82 -15.97 1600 22.54C1710.82 70.4 1724.83 179.24 1800 172.73C1854.99 167.97 1803.61 48.98 1860.32 0C1903.61 -37.39 1971.28 -41.12 2000 0C2041.12 58.88 2000 100 2000 200C2000 300 2000 300 2000 400C2000 500 2000 500 2000 600C2000 700 2050 750 2000 800C1950 850 1900 800 1800 800C1717.5 800 1714.99 808.75 1635 800C1614.99 797.81 1613.6 793.45 1600 778.13C1524.85 693.45 1529.13 688.76 1457.5 600C1429.13 564.84 1436.35 530.3 1400 530.3C1335.73 530.3 1323.01 557.96 1256.25 600C1223.01 620.93 1218 621.85 1200 656.25C1165.67 721.85 1201.6 764.05 1151.58 800C1101.6 835.92 1075.79 800 1000 800C900 800 900 800 800 800C700 800 700 800 600 800C500 800 500 800 400 800C300 800 300 800 200 800C135.72 800 134.69 806.88 71.43 800C34.69 796.01 10.54 807.78 0 778.26C-25.17 707.78 0 689.13 0 600C0 500 0 500 0 400C0 300 0 300 0 200C0 100 -50 50 0 0C50 -50 100 0 200 0C300 0 300 0 400 0C500 0 500 0 600 0C700 0 700 0 800 0C900 0 900 0 1000 0C1087.5 0 1087.99 -3.28 1175 0" stroke="rgba(0, 0, 0, 1)" stroke-width="2"></path><path d="M200 362.96C116.41 362.96 39.49 347.36 23.53 400C3.55 465.88 76.59 499.61 128.13 600C164.83 671.48 151.81 743.75 200 743.75C261.94 743.75 337.84 682.17 348.39 600C359.9 510.29 303.22 494.41 244.12 400C229.03 375.89 226.71 362.96 200 362.96" stroke="rgba(67, 77, 187, 1)" stroke-width="2"></path><path d="M1800 275C1789.95 275 1776.32 336.9 1775 400C1772.93 499.4 1781.5 500.85 1793.22 600C1794 606.56 1795.97 611.43 1800 611.43C1804.77 611.43 1810.27 607.71 1810.81 600C1817.73 501.99 1818.25 499.74 1814.93 400C1812.84 337.24 1809.92 275 1800 275" stroke="rgba(0, 0, 0, 1)" stroke-width="2"></path><path d="M0 104.76C30.16 44.43 40.85 30.99 100 0C140.85 -21.39 150 0 200 0C300 0 300 0 400 0C500 0 500 0 600 0C700 0 700 0 800 0C877.09 0 900.02 -33.09 954.17 0C1000.02 28.02 951.61 102.16 1000 122.22C1074.53 153.11 1109.34 80.11 1200 101.89C1271.24 119 1267.2 145.59 1323.81 200C1367.2 241.71 1364.7 294.12 1400 294.12C1432.42 294.12 1420.65 238.84 1459.26 200C1520.65 138.26 1531.01 92.96 1600 92.96C1664.71 92.96 1715.76 133.01 1726.67 200C1740.76 286.53 1654.61 298.62 1650 400C1645.51 498.62 1723.11 512.18 1708.47 600C1698.11 662.18 1650.45 700 1600 700C1556.21 700 1560.45 649.64 1520 600C1460.45 526.91 1471.4 512 1400 454.55C1347.12 412 1332.11 433.41 1271.43 400C1232.11 378.35 1233.08 344.44 1200 344.44C1172.97 344.44 1168.15 367.54 1151.22 400C1101.49 495.32 1080.19 496.53 1066.67 600C1054.06 696.53 1121.35 732.82 1098.95 800C1088.01 832.82 1049.47 800 1000 800C900 800 900 800 800 800C740 800 732.6 819.13 680 800C632.6 782.76 640.19 763.42 600 727.27C529.01 663.42 524.4 667.72 457.63 600C424.4 566.3 427.23 563.35 400 524.44C357.24 463.35 366.92 454.99 317.65 400C266.92 343.39 268.96 324.46 200 301.23C110.14 270.97 68.27 327.58 0 293.02C-31.73 276.96 0 246.51 0 200C0 152.38 -19.84 144.43 0 104.76" stroke="rgba(67, 77, 187, 1)" stroke-width="2"></path><path d="M600 120.59C558.07 120.59 533.15 148.4 512.9 200C478.31 288.11 464.75 315.02 490.32 400C508.3 459.76 545.51 489.47 600 489.47C653.47 489.47 691.21 458.87 706.25 400C728.19 314.14 708.56 290.97 673.97 200C655.44 151.27 638.61 120.59 600 120.59" stroke="rgba(0, 0, 0, 1)" stroke-width="2"></path><path d="M1875.86 200C1888.68 97.69 1891.46 77.68 1939.68 0C1953.53 -22.32 1993.01 -23.17 2000 0C2023.17 76.83 2000 100 2000 200C2000 300 2000 300 2000 400C2000 500 2000 500 2000 600C2000 700 2050 750 2000 800C1950 850 1900 800 1800 800C1780 800 1760 809.07 1760 800C1760 786.22 1779.32 776.53 1800 754.29C1872.3 676.53 1923.32 689.54 1945.95 600C1968.09 512.39 1907.39 501.8 1889.55 400C1872.34 301.8 1863.62 297.69 1875.86 200" stroke="rgba(67, 77, 187, 1)" stroke-width="2"></path><path d="M0 517.95C13.48 517.95 50 559.92 50 600C50 635.73 13.8 669.57 0 669.57C-11.2 669.57 0 634.79 0 600C0 558.97 -11.52 517.95 0 517.95" stroke="rgba(67, 77, 187, 1)" stroke-width="2"></path><path d="M47.62 200C47.62 138.59 111.17 48.97 200 31.58C287.36 14.48 313.39 68.23 400 131.03C429.52 152.44 430.93 163.09 432.26 200C435.77 297.57 424.59 301.4 409.68 400C408.46 408.07 404.69 413.33 400 413.33C395.44 413.33 397.2 405.23 391.18 400C297.2 318.32 305.34 300.84 200 239.51C133.56 200.84 47.62 242.56 47.62 200" stroke="rgba(0, 0, 0, 1)" stroke-width="2"></path><path d="M600 47.06C561.44 14.09 508.57 12.46 508.57 0C508.57 -11.07 554.28 0 600 0C700 0 700 0 800 0C825 0 839.57 -19.37 850 0C893.42 80.63 867.06 105.21 907.69 200C942.06 280.21 954.26 274.75 1000 350C1015.05 374.75 1029.27 374.87 1029.27 400C1029.27 425.95 1020.91 431.19 1000 452.17C921.27 531.19 830 536.42 830 600C830 653.92 933.98 626.14 1000 687.18C1042.14 726.14 1046.32 759.12 1046.32 800C1046.32 815.53 1023.16 800 1000 800C900 800 900 800 800 800C781.66 800 777.58 810.58 763.33 800C677.58 736.34 681.82 725.58 600 651.52C571.34 625.58 542.37 624.76 542.37 600C542.37 576.63 571.88 578.49 600 555.26C692.89 478.49 745.83 496.13 784.38 400C817.06 318.5 788.04 287.24 742.47 200C695.85 110.77 678.39 114.09 600 47.06" stroke="rgba(0, 255, 114, 1)" stroke-width="2"></path><path d="M1189.47 200C1189.47 197.74 1195.05 196.23 1200 196.23C1202.69 196.23 1204.76 197.88 1204.76 200C1204.76 202.55 1202.91 205.56 1200 205.56C1195.27 205.56 1189.47 202.41 1189.47 200" stroke="rgba(0, 255, 114, 1)" stroke-width="2"></path><path d="M1551.85 200C1551.85 176.28 1576.4 163.38 1600 163.38C1622.14 163.38 1643.33 176.93 1643.33 200C1643.33 241.67 1622.63 292.86 1600 292.86C1576.89 292.86 1551.85 241.02 1551.85 200" stroke="rgba(0, 0, 0, 1)" stroke-width="2"></path><path d="M1962.07 200C1969.28 133.67 1990.32 70.59 2000 70.59C2009.29 70.59 2000 135.3 2000 200C2000 300 2000 300 2000 400C2000 444.44 2008.62 488.89 2000 488.89C1990.71 488.89 1970.32 446.79 1964.18 400C1951.36 302.35 1951.37 298.38 1962.07 200" stroke="rgba(0, 255, 114, 1)" stroke-width="2"></path><path d="M1582.5 600C1582.5 569.98 1589.84 536.36 1600 536.36C1610.46 536.36 1623.73 571.01 1623.73 600C1623.73 613.77 1611.04 621.88 1600 621.88C1590.42 621.88 1582.5 612.74 1582.5 600" stroke="rgba(67, 77, 187, 1)" stroke-width="2"></path><path d="M1909.68 800C1909.68 771.32 1973.9 703.45 2000 703.45C2019.06 703.45 2023.33 775.06 2000 800C1978.17 823.33 1909.68 819.59 1909.68 800" stroke="rgba(67, 77, 187, 1)" stroke-width="2"></path></g><defs><mask id="SvgjsMask1043"><rect width="1920" height="800" fill="#ffffff"></rect></mask></defs></svg>